<?xml version="1.0" encoding="UTF-8" standalone="no"?><!DOCTYPE svg PUBLIC "-//W3C//DTD SVG 1.1//EN" "http://www.w3.org/Graphics/SVG/1.1/DTD/svg11.dtd"><svg width="100%" height="100%" viewBox="0 0 203 228" version="1.1" xmlns="http://www.w3.org/2000/svg" xmlns:xlink="http://www.w3.org/1999/xlink" xml:space="preserve" xmlns:serif="http://www.serif.com/" style="fill-rule:evenodd;clip-rule:evenodd;stroke-linecap:round;stroke-linejoin:round;stroke-miterlimit:1.5;"><path d="M165.899,196.253c-44.958,3.717 -64.718,-25.417 -64.559,-50.92" style="fill:none;stroke:#000;stroke-width:12px;"/><path d="M74.751,216.31c-98.29,-128.052 73.88,-172.15 84.463,-74.606" style="fill:none;stroke:#000;stroke-width:12px;"/><path d="M37.594,23.482c42.479,-20.823 85.226,-22.169 128.305,0.734" style="fill:none;stroke:#000;stroke-width:12px;"/><path d="M7.033,81.12c48.844,-63.317 138.542,-60.21 189.207,0.199" style="fill:none;stroke:#000;stroke-width:12px;"/><path d="M22.277,185.25c-43.528,-131.258 144.801,-170.631 164.059,-49.067c7.227,45.613 -55.928,51.562 -58.648,4.529c-2.213,-38.259 -61.739,-31.929 -53.717,15.485c8.872,52.436 60.05,64.16 60.05,64.16" style="fill:none;stroke:#000;stroke-width:12px;"/></svg>